<mxfile host="app.diagrams.net" modified="2022-01-08T02:31:07.561Z" agent="5.0 (Macintosh; Intel Mac OS X 10_15_7) AppleWebKit/537.36 (KHTML, like Gecko) Chrome/95.0.4638.69 Safari/537.36" etag="BTjKUusa5TyLZ5cNeLaE" version="16.2.2" type="github">
  <diagram id="CH1AJV1AXPssesjO1XAl" name="Page-1">
    <mxGraphModel dx="1606" dy="569" grid="0" gridSize="10" guides="1" tooltips="1" connect="1" arrows="1" fold="1" page="0" pageScale="1" pageWidth="827" pageHeight="1169" math="0" shadow="0">
      <root>
        <mxCell id="0" />
        <mxCell id="1" parent="0" />
        <mxCell id="oMTSmdDWF32hDzsmgZfq-66" value="" style="rounded=0;whiteSpace=wrap;html=1;" vertex="1" parent="1">
          <mxGeometry x="-230" y="180" width="580" height="400" as="geometry" />
        </mxCell>
        <mxCell id="oMTSmdDWF32hDzsmgZfq-1" value="" style="rounded=0;whiteSpace=wrap;html=1;dashed=1;" vertex="1" parent="1">
          <mxGeometry x="605.0757142857143" y="234.23076923076923" width="204.6142857142857" height="321.53846153846155" as="geometry" />
        </mxCell>
        <mxCell id="oMTSmdDWF32hDzsmgZfq-2" value="&lt;br&gt;&lt;br&gt;&lt;br&gt;&lt;br&gt;&lt;br&gt;&lt;br&gt;&lt;br&gt;&lt;br&gt;&lt;br&gt;&lt;br&gt;" style="rounded=0;whiteSpace=wrap;html=1;dashed=1;" vertex="1" parent="1">
          <mxGeometry x="380" y="234.23076923076923" width="204.6142857142857" height="321.53846153846155" as="geometry" />
        </mxCell>
        <mxCell id="oMTSmdDWF32hDzsmgZfq-4" value="种子笔记&lt;br&gt;20w" style="rounded=1;whiteSpace=wrap;html=1;fontSize=12;glass=0;strokeWidth=1;shadow=0;" vertex="1" parent="1">
          <mxGeometry x="619.6910204081632" y="292.6923076923077" width="175.38367346938776" height="58.46153846153846" as="geometry" />
        </mxCell>
        <mxCell id="oMTSmdDWF32hDzsmgZfq-6" value="召回策略+模型" style="rounded=1;whiteSpace=wrap;html=1;fontSize=12;glass=0;strokeWidth=2;shadow=0;strokeColor=#82b366;fillColor=#d5e8d4;" vertex="1" parent="1">
          <mxGeometry x="394.615306122449" y="292.6923076923077" width="175.38367346938776" height="58.46153846153846" as="geometry" />
        </mxCell>
        <mxCell id="oMTSmdDWF32hDzsmgZfq-7" style="edgeStyle=orthogonalEdgeStyle;rounded=0;orthogonalLoop=1;jettySize=auto;html=1;entryX=1;entryY=0.5;entryDx=0;entryDy=0;fontSize=14;" edge="1" parent="1" source="oMTSmdDWF32hDzsmgZfq-60" target="oMTSmdDWF32hDzsmgZfq-6">
          <mxGeometry relative="1" as="geometry">
            <Array as="points">
              <mxPoint x="707" y="541" />
              <mxPoint x="591" y="541" />
              <mxPoint x="591" y="322" />
            </Array>
            <mxPoint x="707.3828571428571" y="526.5384615384615" as="sourcePoint" />
          </mxGeometry>
        </mxCell>
        <mxCell id="oMTSmdDWF32hDzsmgZfq-10" value="排序优化" style="rounded=1;whiteSpace=wrap;html=1;fontSize=12;glass=0;strokeWidth=1;shadow=0;" vertex="1" parent="1">
          <mxGeometry x="394.615306122449" y="380.38461538461536" width="175.38367346938776" height="58.46153846153846" as="geometry" />
        </mxCell>
        <mxCell id="oMTSmdDWF32hDzsmgZfq-5" style="edgeStyle=orthogonalEdgeStyle;rounded=0;orthogonalLoop=1;jettySize=auto;html=1;exitX=0.5;exitY=1;exitDx=0;exitDy=0;entryX=0.5;entryY=0;entryDx=0;entryDy=0;" edge="1" parent="1" source="oMTSmdDWF32hDzsmgZfq-6" target="oMTSmdDWF32hDzsmgZfq-10">
          <mxGeometry relative="1" as="geometry" />
        </mxCell>
        <mxCell id="oMTSmdDWF32hDzsmgZfq-11" style="edgeStyle=orthogonalEdgeStyle;rounded=0;orthogonalLoop=1;jettySize=auto;html=1;exitX=0.5;exitY=1;exitDx=0;exitDy=0;" edge="1" parent="1" source="oMTSmdDWF32hDzsmgZfq-12">
          <mxGeometry relative="1" as="geometry">
            <mxPoint x="482.3071428571428" y="585" as="targetPoint" />
          </mxGeometry>
        </mxCell>
        <mxCell id="oMTSmdDWF32hDzsmgZfq-12" value="postrank保送策略" style="rounded=1;whiteSpace=wrap;html=1;fontSize=12;glass=0;strokeWidth=2;shadow=0;fillColor=#d5e8d4;strokeColor=#82b366;" vertex="1" parent="1">
          <mxGeometry x="394.615306122449" y="468.07692307692304" width="175.38367346938776" height="58.46153846153846" as="geometry" />
        </mxCell>
        <mxCell id="oMTSmdDWF32hDzsmgZfq-9" style="edgeStyle=orthogonalEdgeStyle;rounded=0;orthogonalLoop=1;jettySize=auto;html=1;exitX=0.5;exitY=1;exitDx=0;exitDy=0;" edge="1" parent="1" source="oMTSmdDWF32hDzsmgZfq-10" target="oMTSmdDWF32hDzsmgZfq-12">
          <mxGeometry relative="1" as="geometry" />
        </mxCell>
        <mxCell id="oMTSmdDWF32hDzsmgZfq-13" value="&lt;span style=&quot;font-weight: normal; font-size: 14px;&quot;&gt;分发&lt;/span&gt;" style="text;strokeColor=none;fillColor=none;html=1;fontSize=14;fontStyle=1;verticalAlign=middle;align=center;dashed=1;" vertex="1" parent="1">
          <mxGeometry x="380" y="234.23076923076923" width="146.1530612244898" height="58.46153846153846" as="geometry" />
        </mxCell>
        <mxCell id="oMTSmdDWF32hDzsmgZfq-14" value="&lt;span style=&quot;font-weight: normal ; font-size: 14px&quot;&gt;供给&lt;/span&gt;" style="text;strokeColor=none;fillColor=none;html=1;fontSize=14;fontStyle=1;verticalAlign=middle;align=center;dashed=1;" vertex="1" parent="1">
          <mxGeometry x="605.0757142857143" y="234.23076923076923" width="146.1530612244898" height="58.46153846153846" as="geometry" />
        </mxCell>
        <mxCell id="oMTSmdDWF32hDzsmgZfq-15" value="" style="endArrow=classic;html=1;rounded=0;fontSize=14;entryX=0.5;entryY=0;entryDx=0;entryDy=0;" edge="1" parent="1" target="oMTSmdDWF32hDzsmgZfq-6">
          <mxGeometry width="50" height="50" relative="1" as="geometry">
            <mxPoint x="482.3071428571428" y="205" as="sourcePoint" />
            <mxPoint x="518.8454081632653" y="58.84615384615387" as="targetPoint" />
          </mxGeometry>
        </mxCell>
        <mxCell id="oMTSmdDWF32hDzsmgZfq-16" value="" style="endArrow=classic;html=1;rounded=0;fontSize=14;entryX=0.5;entryY=0;entryDx=0;entryDy=0;" edge="1" parent="1">
          <mxGeometry width="50" height="50" relative="1" as="geometry">
            <mxPoint x="706.6520918367346" y="205" as="sourcePoint" />
            <mxPoint x="706.6520918367346" y="292.6923076923077" as="targetPoint" />
          </mxGeometry>
        </mxCell>
        <mxCell id="oMTSmdDWF32hDzsmgZfq-63" style="edgeStyle=orthogonalEdgeStyle;rounded=0;orthogonalLoop=1;jettySize=auto;html=1;exitX=0.5;exitY=1;exitDx=0;exitDy=0;entryX=0.498;entryY=-0.031;entryDx=0;entryDy=0;entryPerimeter=0;" edge="1" parent="1" source="oMTSmdDWF32hDzsmgZfq-18" target="oMTSmdDWF32hDzsmgZfq-60">
          <mxGeometry relative="1" as="geometry" />
        </mxCell>
        <mxCell id="oMTSmdDWF32hDzsmgZfq-18" value="挖掘算法&lt;br&gt;lpa、PageRank、Swing" style="shape=process;whiteSpace=wrap;html=1;backgroundOutline=1;fontSize=14;strokeColor=#000000;strokeWidth=1;" vertex="1" parent="1">
          <mxGeometry x="634.31" y="380" width="146.15" height="66.15" as="geometry" />
        </mxCell>
        <mxCell id="oMTSmdDWF32hDzsmgZfq-3" style="edgeStyle=orthogonalEdgeStyle;rounded=0;orthogonalLoop=1;jettySize=auto;html=1;exitX=0.5;exitY=1;exitDx=0;exitDy=0;entryX=0.5;entryY=0;entryDx=0;entryDy=0;fontSize=14;" edge="1" parent="1" source="oMTSmdDWF32hDzsmgZfq-4" target="oMTSmdDWF32hDzsmgZfq-18">
          <mxGeometry relative="1" as="geometry" />
        </mxCell>
        <mxCell id="oMTSmdDWF32hDzsmgZfq-58" value="" style="group" vertex="1" connectable="0" parent="1">
          <mxGeometry x="-203" y="239.76999999999998" width="530" height="320" as="geometry" />
        </mxCell>
        <mxCell id="oMTSmdDWF32hDzsmgZfq-21" value="query" style="rounded=0;whiteSpace=wrap;html=1;" vertex="1" parent="oMTSmdDWF32hDzsmgZfq-58">
          <mxGeometry x="90" y="290" width="120" height="30" as="geometry" />
        </mxCell>
        <mxCell id="oMTSmdDWF32hDzsmgZfq-23" value="CNN&lt;br&gt;预训练" style="shape=trapezoid;perimeter=trapezoidPerimeter;whiteSpace=wrap;html=1;fixedSize=1;fillColor=#fff2cc;strokeColor=#d6b656;" vertex="1" parent="oMTSmdDWF32hDzsmgZfq-58">
          <mxGeometry x="90" y="210" width="120" height="60" as="geometry" />
        </mxCell>
        <mxCell id="oMTSmdDWF32hDzsmgZfq-20" style="edgeStyle=none;rounded=0;orthogonalLoop=1;jettySize=auto;html=1;exitX=0.5;exitY=0;exitDx=0;exitDy=0;entryX=0.5;entryY=1;entryDx=0;entryDy=0;" edge="1" parent="oMTSmdDWF32hDzsmgZfq-58" source="oMTSmdDWF32hDzsmgZfq-21" target="oMTSmdDWF32hDzsmgZfq-23">
          <mxGeometry relative="1" as="geometry" />
        </mxCell>
        <mxCell id="oMTSmdDWF32hDzsmgZfq-25" value="&amp;nbsp;side info" style="rounded=0;whiteSpace=wrap;html=1;" vertex="1" parent="oMTSmdDWF32hDzsmgZfq-58">
          <mxGeometry x="240" y="290" width="120" height="30" as="geometry" />
        </mxCell>
        <mxCell id="oMTSmdDWF32hDzsmgZfq-27" value="DNN" style="shape=trapezoid;perimeter=trapezoidPerimeter;whiteSpace=wrap;html=1;fixedSize=1;fillColor=#ffe6cc;strokeColor=#d79b00;" vertex="1" parent="oMTSmdDWF32hDzsmgZfq-58">
          <mxGeometry x="240" y="210" width="120" height="60" as="geometry" />
        </mxCell>
        <mxCell id="oMTSmdDWF32hDzsmgZfq-24" style="edgeStyle=none;rounded=0;orthogonalLoop=1;jettySize=auto;html=1;exitX=0.5;exitY=0;exitDx=0;exitDy=0;entryX=0.5;entryY=1;entryDx=0;entryDy=0;" edge="1" parent="oMTSmdDWF32hDzsmgZfq-58" source="oMTSmdDWF32hDzsmgZfq-25" target="oMTSmdDWF32hDzsmgZfq-27">
          <mxGeometry relative="1" as="geometry" />
        </mxCell>
        <mxCell id="oMTSmdDWF32hDzsmgZfq-29" value="concat" style="rounded=0;whiteSpace=wrap;html=1;" vertex="1" parent="oMTSmdDWF32hDzsmgZfq-58">
          <mxGeometry x="170" y="160" width="120" height="30" as="geometry" />
        </mxCell>
        <mxCell id="oMTSmdDWF32hDzsmgZfq-22" style="rounded=0;orthogonalLoop=1;jettySize=auto;html=1;exitX=0.5;exitY=0;exitDx=0;exitDy=0;" edge="1" parent="oMTSmdDWF32hDzsmgZfq-58" source="oMTSmdDWF32hDzsmgZfq-23" target="oMTSmdDWF32hDzsmgZfq-29">
          <mxGeometry relative="1" as="geometry" />
        </mxCell>
        <mxCell id="oMTSmdDWF32hDzsmgZfq-26" style="edgeStyle=none;rounded=0;orthogonalLoop=1;jettySize=auto;html=1;exitX=0.5;exitY=0;exitDx=0;exitDy=0;entryX=0.75;entryY=1;entryDx=0;entryDy=0;" edge="1" parent="oMTSmdDWF32hDzsmgZfq-58" source="oMTSmdDWF32hDzsmgZfq-27" target="oMTSmdDWF32hDzsmgZfq-29">
          <mxGeometry relative="1" as="geometry" />
        </mxCell>
        <mxCell id="oMTSmdDWF32hDzsmgZfq-31" value="Shared DNN" style="shape=trapezoid;perimeter=trapezoidPerimeter;whiteSpace=wrap;html=1;fixedSize=1;fillColor=#d5e8d4;strokeColor=#82b366;" vertex="1" parent="oMTSmdDWF32hDzsmgZfq-58">
          <mxGeometry x="170" y="80" width="120" height="60" as="geometry" />
        </mxCell>
        <mxCell id="oMTSmdDWF32hDzsmgZfq-28" style="edgeStyle=none;rounded=0;orthogonalLoop=1;jettySize=auto;html=1;exitX=0.5;exitY=0;exitDx=0;exitDy=0;entryX=0.5;entryY=1;entryDx=0;entryDy=0;" edge="1" parent="oMTSmdDWF32hDzsmgZfq-58" source="oMTSmdDWF32hDzsmgZfq-29" target="oMTSmdDWF32hDzsmgZfq-31">
          <mxGeometry relative="1" as="geometry" />
        </mxCell>
        <mxCell id="oMTSmdDWF32hDzsmgZfq-32" style="edgeStyle=none;rounded=0;orthogonalLoop=1;jettySize=auto;html=1;entryX=0.5;entryY=1;entryDx=0;entryDy=0;" edge="1" parent="oMTSmdDWF32hDzsmgZfq-58" source="oMTSmdDWF32hDzsmgZfq-27" target="oMTSmdDWF32hDzsmgZfq-27">
          <mxGeometry relative="1" as="geometry" />
        </mxCell>
        <mxCell id="oMTSmdDWF32hDzsmgZfq-34" value="Shared DNN" style="shape=trapezoid;perimeter=trapezoidPerimeter;whiteSpace=wrap;html=1;fixedSize=1;fillColor=#d5e8d4;strokeColor=#82b366;" vertex="1" parent="oMTSmdDWF32hDzsmgZfq-58">
          <mxGeometry x="410" y="80" width="120" height="60" as="geometry" />
        </mxCell>
        <mxCell id="oMTSmdDWF32hDzsmgZfq-36" value="note id" style="rounded=0;whiteSpace=wrap;html=1;" vertex="1" parent="oMTSmdDWF32hDzsmgZfq-58">
          <mxGeometry x="410" y="290" width="120" height="30" as="geometry" />
        </mxCell>
        <mxCell id="oMTSmdDWF32hDzsmgZfq-37" style="edgeStyle=none;rounded=0;orthogonalLoop=1;jettySize=auto;html=1;exitX=0.5;exitY=0;exitDx=0;exitDy=0;entryX=0.5;entryY=1;entryDx=0;entryDy=0;" edge="1" parent="oMTSmdDWF32hDzsmgZfq-58" source="oMTSmdDWF32hDzsmgZfq-38" target="oMTSmdDWF32hDzsmgZfq-34">
          <mxGeometry relative="1" as="geometry" />
        </mxCell>
        <mxCell id="oMTSmdDWF32hDzsmgZfq-38" value="DNN" style="shape=trapezoid;perimeter=trapezoidPerimeter;whiteSpace=wrap;html=1;fixedSize=1;fillColor=#dae8fc;strokeColor=#6c8ebf;" vertex="1" parent="oMTSmdDWF32hDzsmgZfq-58">
          <mxGeometry x="410" y="210" width="120" height="60" as="geometry" />
        </mxCell>
        <mxCell id="oMTSmdDWF32hDzsmgZfq-35" style="edgeStyle=none;rounded=0;orthogonalLoop=1;jettySize=auto;html=1;exitX=0.5;exitY=0;exitDx=0;exitDy=0;entryX=0.5;entryY=1;entryDx=0;entryDy=0;" edge="1" parent="oMTSmdDWF32hDzsmgZfq-58" source="oMTSmdDWF32hDzsmgZfq-36" target="oMTSmdDWF32hDzsmgZfq-38">
          <mxGeometry relative="1" as="geometry" />
        </mxCell>
        <mxCell id="oMTSmdDWF32hDzsmgZfq-39" style="edgeStyle=none;rounded=0;orthogonalLoop=1;jettySize=auto;html=1;entryX=0.5;entryY=1;entryDx=0;entryDy=0;" edge="1" parent="oMTSmdDWF32hDzsmgZfq-58" source="oMTSmdDWF32hDzsmgZfq-38" target="oMTSmdDWF32hDzsmgZfq-38">
          <mxGeometry relative="1" as="geometry" />
        </mxCell>
        <mxCell id="oMTSmdDWF32hDzsmgZfq-40" value="" style="shape=sumEllipse;perimeter=ellipsePerimeter;whiteSpace=wrap;html=1;backgroundOutline=1;" vertex="1" parent="oMTSmdDWF32hDzsmgZfq-58">
          <mxGeometry x="340" y="10" width="30" height="30" as="geometry" />
        </mxCell>
        <mxCell id="oMTSmdDWF32hDzsmgZfq-30" style="edgeStyle=orthogonalEdgeStyle;rounded=0;orthogonalLoop=1;jettySize=auto;html=1;exitX=0.5;exitY=0;exitDx=0;exitDy=0;" edge="1" parent="oMTSmdDWF32hDzsmgZfq-58" source="oMTSmdDWF32hDzsmgZfq-31" target="oMTSmdDWF32hDzsmgZfq-40">
          <mxGeometry relative="1" as="geometry">
            <Array as="points">
              <mxPoint x="230" y="25" />
            </Array>
          </mxGeometry>
        </mxCell>
        <mxCell id="oMTSmdDWF32hDzsmgZfq-41" value="" style="shape=table;startSize=0;container=1;collapsible=0;childLayout=tableLayout;swimlaneFillColor=none;strokeWidth=1;" vertex="1" parent="oMTSmdDWF32hDzsmgZfq-58">
          <mxGeometry width="70" height="320" as="geometry" />
        </mxCell>
        <mxCell id="oMTSmdDWF32hDzsmgZfq-42" value="" style="shape=tableRow;horizontal=0;startSize=0;swimlaneHead=0;swimlaneBody=0;top=0;left=0;bottom=0;right=0;collapsible=0;dropTarget=0;fillColor=none;points=[[0,0.5],[1,0.5]];portConstraint=eastwest;swimlaneFillColor=none;strokeWidth=2;" vertex="1" parent="oMTSmdDWF32hDzsmgZfq-41">
          <mxGeometry width="70" height="40" as="geometry" />
        </mxCell>
        <mxCell id="oMTSmdDWF32hDzsmgZfq-43" value="Pos" style="shape=partialRectangle;html=1;whiteSpace=wrap;connectable=0;overflow=hidden;fillColor=#d5e8d4;top=1;left=1;bottom=1;right=1;pointerEvents=1;strokeColor=#82b366;swimlaneFillColor=none;strokeWidth=2;sketch=0;" vertex="1" parent="oMTSmdDWF32hDzsmgZfq-42">
          <mxGeometry width="70" height="40" as="geometry">
            <mxRectangle width="70" height="40" as="alternateBounds" />
          </mxGeometry>
        </mxCell>
        <mxCell id="oMTSmdDWF32hDzsmgZfq-44" value="" style="shape=tableRow;horizontal=0;startSize=0;swimlaneHead=0;swimlaneBody=0;top=0;left=0;bottom=0;right=0;collapsible=0;dropTarget=0;fillColor=none;points=[[0,0.5],[1,0.5]];portConstraint=eastwest;swimlaneFillColor=none;strokeWidth=2;" vertex="1" parent="oMTSmdDWF32hDzsmgZfq-41">
          <mxGeometry y="40" width="70" height="40" as="geometry" />
        </mxCell>
        <mxCell id="oMTSmdDWF32hDzsmgZfq-45" value="easy Neg&lt;br&gt;batch内随机" style="shape=partialRectangle;html=1;whiteSpace=wrap;connectable=0;overflow=hidden;fillColor=#f5f5f5;top=1;left=1;bottom=1;right=0;pointerEvents=1;fontColor=#333333;strokeColor=#666666;swimlaneFillColor=none;strokeWidth=2;" vertex="1" parent="oMTSmdDWF32hDzsmgZfq-44">
          <mxGeometry width="70" height="40" as="geometry">
            <mxRectangle width="70" height="40" as="alternateBounds" />
          </mxGeometry>
        </mxCell>
        <mxCell id="oMTSmdDWF32hDzsmgZfq-46" value="" style="shape=tableRow;horizontal=0;startSize=0;swimlaneHead=0;swimlaneBody=0;top=0;left=0;bottom=0;right=0;collapsible=0;dropTarget=0;fillColor=none;points=[[0,0.5],[1,0.5]];portConstraint=eastwest;swimlaneFillColor=none;strokeWidth=2;" vertex="1" parent="oMTSmdDWF32hDzsmgZfq-41">
          <mxGeometry y="80" width="70" height="40" as="geometry" />
        </mxCell>
        <mxCell id="oMTSmdDWF32hDzsmgZfq-47" value="..." style="shape=partialRectangle;html=1;whiteSpace=wrap;connectable=0;overflow=hidden;fillColor=#f5f5f5;top=1;left=1;bottom=1;right=1;pointerEvents=1;fontColor=#333333;strokeColor=#666666;swimlaneFillColor=none;strokeWidth=2;" vertex="1" parent="oMTSmdDWF32hDzsmgZfq-46">
          <mxGeometry width="70" height="40" as="geometry">
            <mxRectangle width="70" height="40" as="alternateBounds" />
          </mxGeometry>
        </mxCell>
        <mxCell id="oMTSmdDWF32hDzsmgZfq-48" value="" style="shape=tableRow;horizontal=0;startSize=0;swimlaneHead=0;swimlaneBody=0;top=0;left=0;bottom=0;right=0;collapsible=0;dropTarget=0;fillColor=none;points=[[0,0.5],[1,0.5]];portConstraint=eastwest;swimlaneFillColor=none;strokeWidth=2;" vertex="1" parent="oMTSmdDWF32hDzsmgZfq-41">
          <mxGeometry y="120" width="70" height="40" as="geometry" />
        </mxCell>
        <mxCell id="oMTSmdDWF32hDzsmgZfq-49" value="" style="shape=partialRectangle;html=1;whiteSpace=wrap;connectable=0;overflow=hidden;fillColor=#f5f5f5;top=1;left=1;bottom=1;right=1;pointerEvents=1;fontColor=#333333;strokeColor=#666666;swimlaneFillColor=none;strokeWidth=2;" vertex="1" parent="oMTSmdDWF32hDzsmgZfq-48">
          <mxGeometry width="70" height="40" as="geometry">
            <mxRectangle width="70" height="40" as="alternateBounds" />
          </mxGeometry>
        </mxCell>
        <mxCell id="oMTSmdDWF32hDzsmgZfq-50" value="" style="shape=tableRow;horizontal=0;startSize=0;swimlaneHead=0;swimlaneBody=0;top=0;left=0;bottom=0;right=0;collapsible=0;dropTarget=0;fillColor=none;points=[[0,0.5],[1,0.5]];portConstraint=eastwest;swimlaneFillColor=none;strokeWidth=2;" vertex="1" parent="oMTSmdDWF32hDzsmgZfq-41">
          <mxGeometry y="160" width="70" height="40" as="geometry" />
        </mxCell>
        <mxCell id="oMTSmdDWF32hDzsmgZfq-51" value="&lt;span&gt;Hard&lt;/span&gt;&lt;br&gt;&lt;span&gt;召回靠后&lt;/span&gt;" style="shape=partialRectangle;html=1;whiteSpace=wrap;connectable=0;overflow=hidden;fillColor=#dae8fc;top=1;left=1;bottom=1;right=1;pointerEvents=1;strokeColor=#6c8ebf;swimlaneFillColor=none;strokeWidth=2;" vertex="1" parent="oMTSmdDWF32hDzsmgZfq-50">
          <mxGeometry width="70" height="40" as="geometry">
            <mxRectangle width="70" height="40" as="alternateBounds" />
          </mxGeometry>
        </mxCell>
        <mxCell id="oMTSmdDWF32hDzsmgZfq-52" value="" style="shape=tableRow;horizontal=0;startSize=0;swimlaneHead=0;swimlaneBody=0;top=0;left=0;bottom=0;right=0;collapsible=0;dropTarget=0;fillColor=none;points=[[0,0.5],[1,0.5]];portConstraint=eastwest;swimlaneFillColor=none;strokeWidth=2;" vertex="1" parent="oMTSmdDWF32hDzsmgZfq-41">
          <mxGeometry y="200" width="70" height="40" as="geometry" />
        </mxCell>
        <mxCell id="oMTSmdDWF32hDzsmgZfq-53" value="..." style="shape=partialRectangle;html=1;whiteSpace=wrap;connectable=0;overflow=hidden;fillColor=#dae8fc;top=1;left=1;bottom=1;right=1;pointerEvents=1;strokeColor=#6c8ebf;swimlaneFillColor=none;strokeWidth=2;" vertex="1" parent="oMTSmdDWF32hDzsmgZfq-52">
          <mxGeometry width="70" height="40" as="geometry">
            <mxRectangle width="70" height="40" as="alternateBounds" />
          </mxGeometry>
        </mxCell>
        <mxCell id="oMTSmdDWF32hDzsmgZfq-54" value="" style="shape=tableRow;horizontal=0;startSize=0;swimlaneHead=0;swimlaneBody=0;top=0;left=0;bottom=0;right=0;collapsible=0;dropTarget=0;fillColor=none;points=[[0,0.5],[1,0.5]];portConstraint=eastwest;swimlaneFillColor=none;strokeWidth=2;" vertex="1" parent="oMTSmdDWF32hDzsmgZfq-41">
          <mxGeometry y="240" width="70" height="40" as="geometry" />
        </mxCell>
        <mxCell id="oMTSmdDWF32hDzsmgZfq-55" value="Very Hard&lt;br&gt;曝光未点击" style="shape=partialRectangle;html=1;whiteSpace=wrap;connectable=0;overflow=hidden;fillColor=#647687;top=1;left=1;bottom=1;right=1;pointerEvents=1;fontColor=#ffffff;strokeColor=#314354;swimlaneFillColor=none;strokeWidth=2;" vertex="1" parent="oMTSmdDWF32hDzsmgZfq-54">
          <mxGeometry width="70" height="40" as="geometry">
            <mxRectangle width="70" height="40" as="alternateBounds" />
          </mxGeometry>
        </mxCell>
        <mxCell id="oMTSmdDWF32hDzsmgZfq-56" value="" style="shape=tableRow;horizontal=0;startSize=0;swimlaneHead=0;swimlaneBody=0;top=0;left=0;bottom=0;right=0;collapsible=0;dropTarget=0;fillColor=none;points=[[0,0.5],[1,0.5]];portConstraint=eastwest;swimlaneFillColor=none;strokeWidth=2;" vertex="1" parent="oMTSmdDWF32hDzsmgZfq-41">
          <mxGeometry y="280" width="70" height="40" as="geometry" />
        </mxCell>
        <mxCell id="oMTSmdDWF32hDzsmgZfq-57" value="" style="shape=partialRectangle;html=1;whiteSpace=wrap;connectable=0;overflow=hidden;fillColor=#647687;top=1;left=1;bottom=1;right=1;pointerEvents=1;fontColor=#ffffff;strokeColor=#314354;swimlaneFillColor=none;strokeWidth=2;" vertex="1" parent="oMTSmdDWF32hDzsmgZfq-56">
          <mxGeometry width="70" height="40" as="geometry">
            <mxRectangle width="70" height="40" as="alternateBounds" />
          </mxGeometry>
        </mxCell>
        <mxCell id="oMTSmdDWF32hDzsmgZfq-33" style="edgeStyle=orthogonalEdgeStyle;rounded=0;orthogonalLoop=1;jettySize=auto;html=1;exitX=0.5;exitY=0;exitDx=0;exitDy=0;entryX=1;entryY=0.5;entryDx=0;entryDy=0;" edge="1" parent="oMTSmdDWF32hDzsmgZfq-58" source="oMTSmdDWF32hDzsmgZfq-34" target="oMTSmdDWF32hDzsmgZfq-40">
          <mxGeometry relative="1" as="geometry" />
        </mxCell>
        <mxCell id="oMTSmdDWF32hDzsmgZfq-59" value="" style="shape=table;startSize=0;container=1;collapsible=0;childLayout=tableLayout;" vertex="1" parent="1">
          <mxGeometry x="627.38" y="474.62" width="160" height="51.92" as="geometry" />
        </mxCell>
        <mxCell id="oMTSmdDWF32hDzsmgZfq-60" value="" style="shape=tableRow;horizontal=0;startSize=0;swimlaneHead=0;swimlaneBody=0;top=0;left=0;bottom=0;right=0;collapsible=0;dropTarget=0;fillColor=none;points=[[0,0.5],[1,0.5]];portConstraint=eastwest;" vertex="1" parent="oMTSmdDWF32hDzsmgZfq-59">
          <mxGeometry width="160" height="52" as="geometry" />
        </mxCell>
        <mxCell id="oMTSmdDWF32hDzsmgZfq-61" value="v1&lt;br&gt;2100w" style="shape=partialRectangle;html=1;whiteSpace=wrap;connectable=0;overflow=hidden;fillColor=#d5e8d4;top=0;left=0;bottom=0;right=0;pointerEvents=1;strokeColor=#82b366;" vertex="1" parent="oMTSmdDWF32hDzsmgZfq-60">
          <mxGeometry width="70" height="52" as="geometry">
            <mxRectangle width="70" height="52" as="alternateBounds" />
          </mxGeometry>
        </mxCell>
        <mxCell id="oMTSmdDWF32hDzsmgZfq-62" value="v2: +受众性别标&lt;br&gt;~4600w" style="shape=partialRectangle;html=1;whiteSpace=wrap;connectable=0;overflow=hidden;fillColor=#60a917;top=0;left=0;bottom=0;right=0;pointerEvents=1;fontColor=#ffffff;strokeColor=#2D7600;" vertex="1" parent="oMTSmdDWF32hDzsmgZfq-60">
          <mxGeometry x="70" width="90" height="52" as="geometry">
            <mxRectangle width="90" height="52" as="alternateBounds" />
          </mxGeometry>
        </mxCell>
        <mxCell id="oMTSmdDWF32hDzsmgZfq-64" style="edgeStyle=orthogonalEdgeStyle;rounded=0;orthogonalLoop=1;jettySize=auto;html=1;exitX=0.5;exitY=0;exitDx=0;exitDy=0;entryX=0.5;entryY=1;entryDx=0;entryDy=0;" edge="1" parent="1" source="oMTSmdDWF32hDzsmgZfq-40" target="oMTSmdDWF32hDzsmgZfq-65">
          <mxGeometry relative="1" as="geometry">
            <mxPoint x="152" y="214" as="targetPoint" />
          </mxGeometry>
        </mxCell>
        <mxCell id="oMTSmdDWF32hDzsmgZfq-65" value="Loss = Cross entropy + Hinge" style="text;html=1;strokeColor=none;fillColor=none;align=center;verticalAlign=middle;whiteSpace=wrap;rounded=0;" vertex="1" parent="1">
          <mxGeometry x="104.5" y="194" width="95" height="30" as="geometry" />
        </mxCell>
        <mxCell id="oMTSmdDWF32hDzsmgZfq-68" style="rounded=0;orthogonalLoop=1;jettySize=auto;html=1;exitX=1;exitY=0;exitDx=0;exitDy=0;entryX=0;entryY=0;entryDx=0;entryDy=0;endArrow=none;endFill=0;" edge="1" parent="1" source="oMTSmdDWF32hDzsmgZfq-66" target="oMTSmdDWF32hDzsmgZfq-6">
          <mxGeometry relative="1" as="geometry" />
        </mxCell>
        <mxCell id="oMTSmdDWF32hDzsmgZfq-70" style="edgeStyle=none;rounded=0;orthogonalLoop=1;jettySize=auto;html=1;exitX=1;exitY=1;exitDx=0;exitDy=0;entryX=0;entryY=1;entryDx=0;entryDy=0;endArrow=none;endFill=0;" edge="1" parent="1" source="oMTSmdDWF32hDzsmgZfq-66" target="oMTSmdDWF32hDzsmgZfq-6">
          <mxGeometry relative="1" as="geometry" />
        </mxCell>
      </root>
    </mxGraphModel>
  </diagram>
</mxfile>
